<?xml version="1.0" encoding="utf-8"?>
<!-- Generator: Adobe Illustrator 18.0.0, SVG Export Plug-In . SVG Version: 6.00 Build 0)  -->
<!DOCTYPE svg PUBLIC "-//W3C//DTD SVG 1.1//EN" "http://www.w3.org/Graphics/SVG/1.1/DTD/svg11.dtd">
<svg version="1.1" id="Layer_1" xmlns="http://www.w3.org/2000/svg" xmlns:xlink="http://www.w3.org/1999/xlink" x="0px" y="0px"
	 viewBox="0 0 560 960" enable-background="new 0 0 560 960" xml:space="preserve">
<circle fill="#F6F6F6" cx="114.8" cy="344.8" r="114.8"/>
<circle fill="#F6F6F6" cx="114.8" cy="114.8" r="114.8"/>
<g>
	<path d="M75.2,117.9c0-8.2,0-16.4,0-24.6c6.2,0,12.3,0,18.8,0c0-7.8-0.1-14.9,0-22.1c0.1-13.4,7.3-23.9,19.4-28.5
		c10.3-4,21-2.5,31.6-2c0.9,0,2.3,1.8,2.3,2.9c0.2,6.8,0.1,13.6,0.1,20.9c-6.6,0-12.2-0.1-17.7,0c-4.5,0.1-8.4,1.6-8.7,6.7
		c-0.4,7.3-0.1,14.6-0.1,22.4c9.1,0,17.8,0,25.8,0c0,7.1-0.2,13.6,0.1,20.1c0.1,4-1.5,5-5.2,4.9c-6.8-0.3-13.6-0.1-21.1-0.1
		c0,23.4,0,46.2,0,69c-9.1,0-17.5,0-26.6,0c0-23.1,0-45.9,0-69.5C87.3,117.9,81.2,117.9,75.2,117.9z"/>
</g>
<g>
	<path fill="#FF00A6" d="M75.2,347.9c0-8.2,0-16.4,0-24.6c6.2,0,12.3,0,18.8,0c0-7.8-0.1-14.9,0-22.1c0.1-13.4,7.3-23.9,19.4-28.5
		c10.3-4,21-2.5,31.6-2c0.9,0,2.3,1.8,2.3,2.9c0.2,6.8,0.1,13.6,0.1,20.9c-6.6,0-12.2-0.1-17.7,0c-4.5,0.1-8.4,1.6-8.7,6.7
		c-0.4,7.3-0.1,14.6-0.1,22.4c9.1,0,17.8,0,25.8,0c0,7.1-0.2,13.6,0.1,20.1c0.1,4-1.5,5-5.2,4.9c-6.8-0.3-13.6-0.1-21.1-0.1
		c0,23.4,0,46.2,0,69c-9.1,0-17.5,0-26.6,0c0-23.1,0-45.9,0-69.5C87.3,347.9,81.2,347.9,75.2,347.9z"/>
</g>
<circle fill="#FF00A6" cx="114.8" cy="574.8" r="114.8"/>
<g>
	<path fill="#FFFFFF" d="M75.2,577.9c0-8.2,0-16.4,0-24.6c6.2,0,12.3,0,18.8,0c0-7.8-0.1-14.9,0-22.1c0.1-13.4,7.3-23.9,19.4-28.5
		c10.3-4,21-2.5,31.6-2c0.9,0,2.3,1.8,2.3,2.9c0.2,6.8,0.1,13.6,0.1,20.9c-6.6,0-12.2-0.1-17.7,0c-4.5,0.1-8.4,1.6-8.7,6.7
		c-0.4,7.3-0.1,14.6-0.1,22.4c9.1,0,17.8,0,25.8,0c0,7.1-0.2,13.6,0.1,20.1c0.1,4-1.5,5-5.2,4.9c-6.8-0.3-13.6-0.1-21.1-0.1
		c0,23.4,0,46.2,0,69c-9.1,0-17.5,0-26.6,0c0-23.1,0-45.9,0-69.5C87.3,577.9,81.2,577.9,75.2,577.9z"/>
</g>
<circle fill="#F6F6F6" cx="114.8" cy="805.4" r="114.8"/>
<g>
	<path fill="#B3B3B3" d="M75.2,808.5c0-8.2,0-16.4,0-24.6c6.2,0,12.3,0,18.8,0c0-7.8-0.1-14.9,0-22.1c0.1-13.4,7.3-23.9,19.4-28.5
		c10.3-4,21-2.5,31.6-2c0.9,0,2.3,1.8,2.3,2.9c0.2,6.8,0.1,13.6,0.1,20.9c-6.6,0-12.2-0.1-17.7,0c-4.5,0.1-8.4,1.6-8.7,6.7
		c-0.4,7.3-0.1,14.6-0.1,22.4c9.1,0,17.8,0,25.8,0c0,7.1-0.2,13.6,0.1,20.1c0.1,4-1.5,5-5.2,4.9c-6.8-0.3-13.6-0.1-21.1-0.1
		c0,23.4,0,46.2,0,69c-9.1,0-17.5,0-26.6,0c0-23.1,0-45.9,0-69.5C87.3,808.5,81.2,808.5,75.2,808.5z"/>
</g>
</svg>
