<?xml version="1.0" encoding="utf-8"?>
<!-- Generator: Adobe Illustrator 18.0.0, SVG Export Plug-In . SVG Version: 6.00 Build 0)  -->
<!DOCTYPE svg PUBLIC "-//W3C//DTD SVG 1.1//EN" "http://www.w3.org/Graphics/SVG/1.1/DTD/svg11.dtd">
<svg version="1.1" id="Layer_1" xmlns="http://www.w3.org/2000/svg" xmlns:xlink="http://www.w3.org/1999/xlink" x="0px" y="0px"
	 viewBox="0 0 560 960" enable-background="new 0 0 560 960" xml:space="preserve">
<circle fill="#F6F6F6" cx="114.8" cy="344.8" r="114.8"/>
<circle fill="#FF00A6" cx="114.8" cy="574.8" r="114.8"/>
<circle fill="#F6F6F6" cx="114.8" cy="805.4" r="114.8"/>
<circle fill="#F6F6F6" cx="114.8" cy="114.8" r="114.8"/>
<g>
	<path d="M54.2,150.6c0-15.5,0-31,0-46.5c11.6,0,23.2,0,35,0c-5,14.4-2.3,26.5,9.9,35.6c9.3,6.9,22.6,7.1,32,0.4
		c12.7-9,15.5-21.3,10.5-35.8c11.2,0,22.3,0,33.4,0c0.2,0.5,0.3,0.9,0.3,1.3c0,13.7,0.5,27.5-0.1,41.2c-0.8,17.5-13.7,29-31.3,29
		c-19.6,0-39.3,0-58.9,0c-8.8,0-16.3-3.1-22.5-9.4C58.1,161.9,56,156.3,54.2,150.6z"/>
	<path d="M81.2,53.9c22.3,0,44.5,0,66.8,0c0.4,0.2,0.9,0.5,1.3,0.6c14.8,1.9,29.2,15.4,25.6,38.3c-0.6,0.1-1.2,0.2-1.8,0.2
		c-13,0-26,0.1-39-0.1c-1.5,0-3.1-0.7-4.5-1.5c-9.6-5.1-19.1-5.2-28.6,0.1c-1.3,0.7-2.7,1.4-4.1,1.4c-14.2,0.1-28.5,0-42.7-0.1
		c0-4.5,0-9,0-13.5c0.3-0.7,0.6-1.4,0.8-2.1c3.2-11.7,10.7-19.1,22.4-22.4C78.6,54.6,79.9,54.2,81.2,53.9z M148.6,69.5
		c-8.3,0-8.3,0-8.3,8.3c0,8.4,0,8.4,8.3,8.4c8.4,0,8.4,0,8.4-8.4C157.1,69.5,157.1,69.5,148.6,69.5z"/>
	<path d="M115.2,128.2c-6.7,0-11.8-5.2-11.9-11.9c-0.1-6.7,5.4-12.2,12.1-12.1c6.6,0,11.9,5.3,11.9,11.9
		C127.4,123,122,128.3,115.2,128.2z"/>
</g>
<g>
	<path fill="#FF00A6" d="M54.7,380.6c0-15.5,0-31,0-46.5c11.6,0,23.2,0,35,0c-5,14.4-2.3,26.5,9.9,35.6c9.3,6.9,22.6,7.1,32,0.4
		c12.7-9,15.5-21.3,10.5-35.8c11.2,0,22.3,0,33.4,0c0.2,0.5,0.3,0.9,0.3,1.3c0,13.7,0.5,27.5-0.1,41.2c-0.8,17.5-13.7,29-31.3,29
		c-19.6,0-39.3,0-58.9,0c-8.8,0-16.3-3.1-22.5-9.4C58.6,391.9,56.5,386.3,54.7,380.6z"/>
	<path fill="#FF00A6" d="M81.7,283.9c22.3,0,44.5,0,66.8,0c0.4,0.2,0.9,0.5,1.3,0.6c14.8,1.9,29.2,15.4,25.6,38.3
		c-0.6,0.1-1.2,0.2-1.8,0.2c-13,0-26,0.1-39-0.1c-1.5,0-3.1-0.7-4.5-1.5c-9.6-5.1-19.1-5.2-28.6,0.1c-1.3,0.7-2.7,1.4-4.1,1.4
		c-14.2,0.1-28.5,0-42.7-0.1c0-4.5,0-9,0-13.5c0.3-0.7,0.6-1.4,0.8-2.1c3.2-11.7,10.7-19.1,22.4-22.4
		C79.1,284.6,80.4,284.2,81.7,283.9z M149.1,299.5c-8.3,0-8.3,0-8.3,8.3c0,8.4,0,8.4,8.3,8.4c8.4,0,8.4,0,8.4-8.4
		C157.5,299.5,157.5,299.5,149.1,299.5z"/>
	<path fill="#FF00A6" d="M115.7,358.2c-6.7,0-11.8-5.2-11.9-11.9c-0.1-6.7,5.4-12.2,12.1-12.1c6.6,0,11.9,5.3,11.9,11.9
		C127.8,353,122.5,358.3,115.7,358.2z"/>
</g>
<g>
	<path fill="#FFFFFF" d="M54.2,610.6c0-15.5,0-31,0-46.5c11.6,0,23.2,0,35,0c-5,14.4-2.3,26.5,9.9,35.6c9.3,6.9,22.6,7.1,32,0.4
		c12.7-9,15.5-21.3,10.5-35.8c11.2,0,22.3,0,33.4,0c0.2,0.5,0.3,0.9,0.3,1.3c0,13.7,0.5,27.5-0.1,41.2c-0.8,17.5-13.7,29-31.3,29
		c-19.6,0-39.3,0-58.9,0c-8.8,0-16.3-3.1-22.5-9.4C58.1,621.9,56,616.3,54.2,610.6z"/>
	<path fill="#FFFFFF" d="M81.2,513.9c22.3,0,44.5,0,66.8,0c0.4,0.2,0.9,0.5,1.3,0.6c14.8,1.9,29.2,15.4,25.6,38.3
		c-0.6,0.1-1.2,0.2-1.8,0.2c-13,0-26,0.1-39-0.1c-1.5,0-3.1-0.7-4.5-1.5c-9.6-5.1-19.1-5.2-28.6,0.1c-1.3,0.7-2.7,1.4-4.1,1.4
		c-14.2,0.1-28.5,0-42.7-0.1c0-4.5,0-9,0-13.5c0.3-0.7,0.6-1.4,0.8-2.1c3.2-11.7,10.7-19.1,22.4-22.4
		C78.6,514.6,79.9,514.2,81.2,513.9z M148.6,529.5c-8.3,0-8.3,0-8.3,8.3c0,8.4,0,8.4,8.3,8.4c8.4,0,8.4,0,8.4-8.4
		C157,529.5,157,529.5,148.6,529.5z"/>
	<path fill="#FFFFFF" d="M115.2,588.2c-6.7,0-11.8-5.2-11.9-11.9c-0.1-6.7,5.4-12.2,12.1-12.1c6.6,0,11.9,5.3,11.9,11.9
		C127.3,583,122,588.3,115.2,588.2z"/>
</g>
<g>
	<path fill="#AAAAAA" d="M55.2,841.2c0-15.5,0-31,0-46.5c11.6,0,23.2,0,35,0c-5,14.4-2.3,26.5,9.9,35.6c9.3,6.9,22.6,7.1,32,0.4
		c12.7-9,15.5-21.3,10.5-35.8c11.2,0,22.3,0,33.4,0c0.2,0.5,0.3,0.9,0.3,1.3c0,13.7,0.5,27.5-0.1,41.2c-0.8,17.5-13.7,29-31.3,29
		c-19.6,0-39.3,0-58.9,0c-8.8,0-16.3-3.1-22.5-9.4C59.1,852.5,57,846.9,55.2,841.2z"/>
	<path fill="#AAAAAA" d="M82.2,744.5c22.3,0,44.5,0,66.8,0c0.4,0.2,0.9,0.5,1.3,0.6c14.8,1.9,29.2,15.4,25.6,38.3
		c-0.6,0.1-1.2,0.2-1.8,0.2c-13,0-26,0.1-39-0.1c-1.5,0-3.1-0.7-4.5-1.5c-9.6-5.1-19.1-5.2-28.6,0.1c-1.3,0.7-2.7,1.4-4.1,1.4
		c-14.2,0.1-28.5,0-42.7-0.1c0-4.5,0-9,0-13.5c0.3-0.7,0.6-1.4,0.8-2.1c3.2-11.7,10.7-19.1,22.4-22.4
		C79.6,745.2,80.9,744.8,82.2,744.5z M149.6,760.1c-8.3,0-8.3,0-8.3,8.3c0,8.4,0,8.4,8.3,8.4c8.4,0,8.4,0,8.4-8.4
		C158,760.1,158,760.1,149.6,760.1z"/>
	<path fill="#AAAAAA" d="M116.2,818.9c-6.7,0-11.8-5.2-11.9-11.9c-0.1-6.7,5.4-12.2,12.1-12.1c6.6,0,11.9,5.3,11.9,11.9
		C128.3,813.6,123,818.9,116.2,818.9z"/>
</g>
</svg>
