<?xml version="1.0" encoding="utf-8"?>
<!-- Generator: Adobe Illustrator 18.0.0, SVG Export Plug-In . SVG Version: 6.00 Build 0)  -->
<!DOCTYPE svg PUBLIC "-//W3C//DTD SVG 1.1//EN" "http://www.w3.org/Graphics/SVG/1.1/DTD/svg11.dtd">
<svg version="1.1" id="Layer_1" xmlns="http://www.w3.org/2000/svg" xmlns:xlink="http://www.w3.org/1999/xlink" x="0px" y="0px"
	 viewBox="0 0 560 960" enable-background="new 0 0 560 960" xml:space="preserve">
<circle fill="#F6F6F6" cx="114.8" cy="344.8" r="114.8"/>
<circle fill="#FF00A6" cx="114.8" cy="574.8" r="114.8"/>
<circle fill="#F6F6F6" cx="114.8" cy="805.4" r="114.8"/>
<circle fill="#F6F6F6" cx="114.8" cy="114.8" r="114.8"/>
<g>
	<path d="M106.9,141.5c-4.2,18.5-8.3,36.5-22.6,51.2c-2-12.4-2.5-23.5,0-34.5c3-13.6,6.4-27.1,9.5-40.7c0.6-2.5,0.3-5.3-0.2-7.9
		c-1.4-6.9-2-13.7,0.8-20.3c1.1-2.6,2.8-5.1,4.7-7.1c3.9-4.1,10-5.2,14.6-3c4.3,2,7,6.7,6.2,12.5c-0.7,5.4-2.2,10.7-3.5,15.9
		c-1,3.9-2.3,7.7-3.4,11.5c-1.5,5.2-0.9,10,3.1,13.7c4.4,4.1,10,5.2,15.2,2.5c4.4-2.2,8.9-5.5,11.7-9.5c7.9-11.2,10.2-24.2,8.9-37.6
		c-1.5-15.6-11-24.7-27-27.6C99,56,76,74.7,76.2,100.2c0,5.8,1.5,11.1,5.1,15.7c2,2.6,1.7,11.4-0.9,13.4c-1.1,0.9-3.7,0.8-5.2,0.1
		c-8.3-4.1-12.5-11.3-14.4-20c-6.1-27.5,11.6-54.6,40.5-61.7c16.9-4.1,33.6-3.5,48.8,6.2c18.6,11.8,25,29.3,22.1,50.6
		c-1.8,13.5-6.5,25.8-16.5,35.5c-8,7.7-17.7,11.4-28.8,11.2C119.1,151,112.6,147.9,106.9,141.5z"/>
</g>
<g>
	<path fill="#FF00A6" d="M108.4,371.5c-4.2,18.5-8.3,36.5-22.6,51.2c-2-12.4-2.5-23.5,0-34.5c3-13.6,6.4-27.1,9.5-40.7
		c0.6-2.5,0.3-5.3-0.2-7.9c-1.4-6.9-2-13.7,0.8-20.3c1.1-2.6,2.8-5.1,4.7-7.1c3.9-4.1,10-5.2,14.6-3c4.3,2,7,6.7,6.2,12.5
		c-0.7,5.4-2.2,10.7-3.5,15.9c-1,3.9-2.3,7.7-3.4,11.5c-1.5,5.2-0.9,10,3.1,13.7c4.4,4.1,10,5.2,15.2,2.5c4.4-2.2,8.9-5.5,11.7-9.5
		c7.9-11.2,10.2-24.2,8.9-37.6c-1.5-15.6-11-24.7-27-27.6c-25.8-4.7-48.8,14.1-48.7,39.6c0,5.8,1.5,11.1,5.1,15.7
		c2,2.6,1.7,11.4-0.9,13.4c-1.1,0.9-3.7,0.8-5.2,0.1c-8.3-4.1-12.5-11.3-14.4-20c-6.1-27.5,11.6-54.6,40.5-61.7
		c16.9-4.1,33.6-3.5,48.8,6.2c18.6,11.8,25,29.3,22.1,50.6c-1.8,13.5-6.5,25.8-16.5,35.5c-8,7.7-17.7,11.4-28.8,11.2
		C120.6,381,114.1,377.9,108.4,371.5z"/>
</g>
<g>
	<path fill="#FFFFFF" d="M106.9,601.5c-4.2,18.5-8.3,36.5-22.6,51.2c-2-12.4-2.5-23.5,0-34.5c3-13.6,6.4-27.1,9.5-40.7
		c0.6-2.5,0.3-5.3-0.2-7.9c-1.4-6.9-2-13.7,0.8-20.3c1.1-2.6,2.8-5.1,4.7-7.1c3.9-4.1,10-5.2,14.6-3c4.3,2,7,6.7,6.2,12.5
		c-0.7,5.4-2.2,10.7-3.5,15.9c-1,3.9-2.3,7.7-3.4,11.5c-1.5,5.2-0.9,10,3.1,13.7c4.4,4.1,10,5.2,15.2,2.5c4.4-2.2,8.9-5.5,11.7-9.5
		c7.9-11.2,10.2-24.2,8.9-37.6c-1.5-15.6-11-24.7-27-27.6C99,516,76,534.7,76.2,560.2c0,5.8,1.5,11.1,5.1,15.7
		c2,2.6,1.7,11.4-0.9,13.4c-1.1,0.9-3.7,0.8-5.2,0.1c-8.3-4.1-12.5-11.3-14.4-20c-6.1-27.5,11.6-54.6,40.5-61.7
		c16.9-4.1,33.6-3.5,48.8,6.2c18.6,11.8,25,29.3,22.1,50.6c-1.8,13.5-6.5,25.8-16.5,35.5c-8,7.7-17.7,11.4-28.8,11.2
		C119.1,611,112.6,607.9,106.9,601.5z"/>
</g>
<g>
	<path fill="#AAAAAA" d="M106.9,832.1c-4.2,18.5-8.3,36.5-22.6,51.2c-2-12.4-2.5-23.5,0-34.5c3-13.6,6.4-27.1,9.5-40.7
		c0.6-2.5,0.3-5.3-0.2-7.9c-1.4-6.9-2-13.7,0.8-20.3c1.1-2.6,2.8-5.1,4.7-7.1c3.9-4.1,10-5.2,14.6-3c4.3,2,7,6.7,6.2,12.5
		c-0.7,5.4-2.2,10.7-3.5,15.9c-1,3.9-2.3,7.7-3.4,11.5c-1.5,5.2-0.9,10,3.1,13.7c4.4,4.1,10,5.2,15.2,2.5c4.4-2.2,8.9-5.5,11.7-9.5
		c7.9-11.2,10.2-24.2,8.9-37.6c-1.5-15.6-11-24.7-27-27.6C99,746.6,76,765.3,76.2,790.8c0,5.8,1.5,11.1,5.1,15.7
		c2,2.6,1.7,11.4-0.9,13.4c-1.1,0.9-3.7,0.8-5.2,0.1c-8.3-4.1-12.5-11.3-14.4-20c-6.1-27.5,11.6-54.6,40.5-61.7
		c16.9-4.1,33.6-3.5,48.8,6.2c18.6,11.8,25,29.3,22.1,50.6c-1.8,13.5-6.5,25.8-16.5,35.5c-8,7.7-17.7,11.4-28.8,11.2
		C119.1,841.6,112.6,838.6,106.9,832.1z"/>
</g>
</svg>
