<?xml version="1.0" encoding="utf-8"?>
<!-- Generator: Adobe Illustrator 18.0.0, SVG Export Plug-In . SVG Version: 6.00 Build 0)  -->
<!DOCTYPE svg PUBLIC "-//W3C//DTD SVG 1.1//EN" "http://www.w3.org/Graphics/SVG/1.1/DTD/svg11.dtd">
<svg version="1.1" id="Layer_1" xmlns="http://www.w3.org/2000/svg" xmlns:xlink="http://www.w3.org/1999/xlink" x="0px" y="0px"
	 viewBox="0 0 560 960" enable-background="new 0 0 560 960" xml:space="preserve">
<circle fill="#F6F6F6" cx="114.8" cy="344.8" r="114.8"/>
<circle fill="#F6F6F6" cx="114.8" cy="114.8" r="114.8"/>
<circle fill="#FF00A6" cx="114.8" cy="574.8" r="114.8"/>
<circle fill="#F6F6F6" cx="114.8" cy="805.4" r="114.8"/>
<path d="M138.7,56.8c3.5,0,7,0,10.5,0c5.5,3,10.9,6,16.5,8.9c0.9,0.5,2.3,0.5,3.3,0.2c5.5-1.9,11-3.9,16.4-5.8
	c-1.1,4.8-2,6.2-10.1,15.9c4.7-1.3,9.4-2.6,14.1-3.9c0.2,0.3,0.4,0.6,0.6,0.9c-4.3,4.3-8.6,8.4-12.7,12.8c-1.1,1.2-2,3-2.2,4.6
	c-0.7,5.1-0.6,10.3-1.5,15.3c-11.7,64.8-76.1,89.1-125.7,65c-2.6-1.3-5-2.7-8.3-4.5c23.3-1.3,38.2-5.7,43.7-13
	c-13.1-1.9-22.4-8.6-27.3-21.7c4.2,0,7.9,0,11.6,0c-13.7-5.9-21.7-15.5-22.4-30.9c4.4,1.2,8.3,2.3,13.1,3.7
	c-13.9-16-16.7-30.8-8.3-41.4c16.6,19.2,37.4,30.1,63.3,32c-1.7-12.1,0.8-22.5,9.9-29.9C127.6,61.3,133.5,59.5,138.7,56.8z"/>
<path fill="#FF00A6" d="M138.7,286.8c3.5,0,7,0,10.5,0c5.5,3,10.9,6,16.5,8.9c0.9,0.5,2.3,0.5,3.3,0.2c5.5-1.9,11-3.9,16.4-5.8
	c-1.1,4.8-2,6.2-10.1,15.9c4.7-1.3,9.4-2.6,14.1-3.9c0.2,0.3,0.4,0.6,0.6,0.9c-4.3,4.3-8.6,8.4-12.7,12.8c-1.1,1.2-2,3-2.2,4.6
	c-0.7,5.1-0.6,10.3-1.5,15.3c-11.7,64.8-76.1,89.1-125.7,65c-2.6-1.3-5-2.7-8.3-4.5c23.3-1.3,38.2-5.7,43.7-13
	c-13.1-1.9-22.4-8.6-27.3-21.7c4.2,0,7.9,0,11.6,0c-13.7-5.9-21.7-15.5-22.4-30.9c4.4,1.2,8.3,2.3,13.1,3.7
	c-13.9-16-16.7-30.8-8.3-41.4c16.6,19.2,37.4,30.1,63.3,32c-1.7-12.1,0.8-22.5,9.9-29.9C127.6,291.3,133.5,289.5,138.7,286.8z"/>
<path fill="#FFFFFF" d="M138.7,516.8c3.5,0,7,0,10.5,0c5.5,3,10.9,6,16.5,8.9c0.9,0.5,2.3,0.5,3.3,0.2c5.5-1.9,11-3.9,16.4-5.8
	c-1.1,4.8-2,6.2-10.1,15.9c4.7-1.3,9.4-2.6,14.1-3.9c0.2,0.3,0.4,0.6,0.6,0.9c-4.3,4.3-8.6,8.4-12.7,12.8c-1.1,1.2-2,3-2.2,4.6
	c-0.7,5.1-0.6,10.3-1.5,15.3c-11.7,64.8-76.1,89.1-125.7,65c-2.6-1.3-5-2.7-8.3-4.5c23.3-1.3,38.2-5.7,43.7-13
	c-13.1-1.9-22.4-8.6-27.3-21.7c4.2,0,7.9,0,11.6,0c-13.7-5.9-21.7-15.5-22.4-30.9c4.4,1.2,8.3,2.3,13.1,3.7
	c-13.9-16-16.7-30.8-8.3-41.4c16.6,19.2,37.4,30.1,63.3,32c-1.7-12.1,0.8-22.5,9.9-29.9C127.6,521.3,133.5,519.5,138.7,516.8z"/>
<path fill="#AAAAAA" d="M138.7,747.4c3.5,0,7,0,10.5,0c5.5,3,10.9,6,16.5,8.9c0.9,0.5,2.3,0.5,3.3,0.2c5.5-1.9,11-3.9,16.4-5.8
	c-1.1,4.8-2,6.2-10.1,15.9c4.7-1.3,9.4-2.6,14.1-3.9c0.2,0.3,0.4,0.6,0.6,0.9c-4.3,4.3-8.6,8.4-12.7,12.8c-1.1,1.2-2,3-2.2,4.6
	c-0.7,5.1-0.6,10.3-1.5,15.3c-11.7,64.8-76.1,89.1-125.7,65c-2.6-1.3-5-2.7-8.3-4.5c23.3-1.3,38.2-5.7,43.7-13
	c-13.1-1.9-22.4-8.6-27.3-21.7c4.2,0,7.9,0,11.6,0c-13.7-5.9-21.7-15.5-22.4-30.9c4.4,1.2,8.3,2.3,13.1,3.7
	c-13.9-16-16.7-30.8-8.3-41.4c16.6,19.2,37.4,30.1,63.3,32c-1.7-12.1,0.8-22.5,9.9-29.9C127.6,751.9,133.5,750.1,138.7,747.4z"/>
</svg>
